<svg width="320" height="320" viewBox="0 0 320 320" xmlns="http://www.w3.org/2000/svg">
  <title>Kookaburra</title>
  <desc>1-bit pixel-art kookaburra logo, white-on-transparent.</desc>
  <!-- 8px pixel grid. Content centered in a 320x320 canvas. -->
  <!-- Offset: subtract 160 from x, 60 from y compared to the preview layout -->
  <g fill="#ffffff" shape-rendering="crispEdges">
    <!-- Crown -->
    <rect x="180" y="32" width="8" height="8"/>
    <rect x="188" y="32" width="8" height="8"/>
    <rect x="196" y="32" width="8" height="8"/>
    <rect x="204" y="32" width="8" height="8"/>

    <rect x="172" y="40" width="8" height="8"/>
    <rect x="180" y="40" width="8" height="8"/>
    <rect x="188" y="40" width="8" height="8"/>
    <rect x="196" y="40" width="8" height="8"/>
    <rect x="204" y="40" width="8" height="8"/>
    <rect x="212" y="40" width="8" height="8"/>

    <rect x="164" y="48" width="8" height="8"/>
    <rect x="172" y="48" width="8" height="8"/>
    <rect x="180" y="48" width="8" height="8"/>
    <rect x="188" y="48" width="8" height="8"/>
    <rect x="196" y="48" width="8" height="8"/>
    <rect x="204" y="48" width="8" height="8"/>
    <rect x="212" y="48" width="8" height="8"/>
    <rect x="220" y="48" width="8" height="8"/>

    <!-- Head with eye gap -->
    <rect x="156" y="56" width="8" height="8"/>
    <rect x="164" y="56" width="8" height="8"/>
    <rect x="172" y="56" width="8" height="8"/>
    <rect x="180" y="56" width="8" height="8"/>
    <!-- eye gap at 188 -->
    <rect x="196" y="56" width="8" height="8"/>
    <rect x="204" y="56" width="8" height="8"/>
    <rect x="212" y="56" width="8" height="8"/>
    <rect x="220" y="56" width="8" height="8"/>
    <rect x="228" y="56" width="8" height="8"/>

    <rect x="156" y="64" width="8" height="8"/>
    <rect x="164" y="64" width="8" height="8"/>
    <rect x="172" y="64" width="8" height="8"/>
    <rect x="180" y="64" width="8" height="8"/>
    <rect x="188" y="64" width="8" height="8"/>
    <rect x="196" y="64" width="8" height="8"/>
    <rect x="204" y="64" width="8" height="8"/>
    <rect x="212" y="64" width="8" height="8"/>
    <rect x="220" y="64" width="8" height="8"/>
    <rect x="228" y="64" width="8" height="8"/>
    <rect x="236" y="64" width="8" height="8"/>

    <!-- Upper beak -->
    <rect x="60" y="72" width="8" height="8"/>
    <rect x="68" y="72" width="8" height="8"/>
    <rect x="76" y="72" width="8" height="8"/>
    <rect x="84" y="72" width="8" height="8"/>
    <rect x="92" y="72" width="8" height="8"/>
    <rect x="100" y="72" width="8" height="8"/>
    <rect x="108" y="72" width="8" height="8"/>
    <rect x="116" y="72" width="8" height="8"/>
    <rect x="124" y="72" width="8" height="8"/>
    <rect x="132" y="72" width="8" height="8"/>
    <rect x="140" y="72" width="8" height="8"/>
    <rect x="148" y="72" width="8" height="8"/>
    <rect x="156" y="72" width="8" height="8"/>
    <rect x="164" y="72" width="8" height="8"/>
    <rect x="172" y="72" width="8" height="8"/>
    <rect x="180" y="72" width="8" height="8"/>
    <rect x="188" y="72" width="8" height="8"/>
    <rect x="196" y="72" width="8" height="8"/>
    <rect x="204" y="72" width="8" height="8"/>
    <rect x="212" y="72" width="8" height="8"/>
    <rect x="220" y="72" width="8" height="8"/>
    <rect x="228" y="72" width="8" height="8"/>
    <rect x="236" y="72" width="8" height="8"/>

    <!-- Lower beak and upper chest -->
    <rect x="84" y="80" width="8" height="8"/>
    <rect x="92" y="80" width="8" height="8"/>
    <rect x="100" y="80" width="8" height="8"/>
    <rect x="108" y="80" width="8" height="8"/>
    <rect x="116" y="80" width="8" height="8"/>
    <rect x="124" y="80" width="8" height="8"/>
    <rect x="132" y="80" width="8" height="8"/>
    <rect x="140" y="80" width="8" height="8"/>
    <rect x="148" y="80" width="8" height="8"/>
    <rect x="156" y="80" width="8" height="8"/>
    <rect x="164" y="80" width="8" height="8"/>
    <rect x="172" y="80" width="8" height="8"/>
    <rect x="180" y="80" width="8" height="8"/>
    <rect x="188" y="80" width="8" height="8"/>
    <rect x="196" y="80" width="8" height="8"/>
    <rect x="204" y="80" width="8" height="8"/>
    <rect x="212" y="80" width="8" height="8"/>
    <rect x="220" y="80" width="8" height="8"/>
    <rect x="228" y="80" width="8" height="8"/>
    <rect x="236" y="80" width="8" height="8"/>
    <rect x="244" y="80" width="8" height="8"/>

    <!-- Body -->
    <rect x="164" y="88" width="8" height="8"/>
    <rect x="172" y="88" width="8" height="8"/>
    <rect x="180" y="88" width="8" height="8"/>
    <rect x="188" y="88" width="8" height="8"/>
    <rect x="196" y="88" width="8" height="8"/>
    <rect x="204" y="88" width="8" height="8"/>
    <rect x="212" y="88" width="8" height="8"/>
    <rect x="220" y="88" width="8" height="8"/>
    <rect x="228" y="88" width="8" height="8"/>
    <rect x="236" y="88" width="8" height="8"/>
    <rect x="244" y="88" width="8" height="8"/>
    <rect x="252" y="88" width="8" height="8"/>

    <rect x="164" y="96" width="8" height="8"/>
    <rect x="172" y="96" width="8" height="8"/>
    <rect x="180" y="96" width="8" height="8"/>
    <rect x="188" y="96" width="8" height="8"/>
    <rect x="196" y="96" width="8" height="8"/>
    <rect x="204" y="96" width="8" height="8"/>
    <rect x="212" y="96" width="8" height="8"/>
    <rect x="220" y="96" width="8" height="8"/>
    <rect x="228" y="96" width="8" height="8"/>
    <rect x="236" y="96" width="8" height="8"/>
    <rect x="244" y="96" width="8" height="8"/>
    <rect x="252" y="96" width="8" height="8"/>
    <rect x="260" y="96" width="8" height="8"/>

    <!-- Wing hint -->
    <rect x="172" y="104" width="8" height="8"/>
    <rect x="180" y="104" width="8" height="8"/>
    <rect x="188" y="104" width="8" height="8"/>
    <rect x="196" y="104" width="8" height="8"/>
    <rect x="204" y="104" width="8" height="8"/>
    <rect x="220" y="104" width="8" height="8"/>
    <rect x="228" y="104" width="8" height="8"/>
    <rect x="236" y="104" width="8" height="8"/>
    <rect x="244" y="104" width="8" height="8"/>
    <rect x="252" y="104" width="8" height="8"/>
    <rect x="260" y="104" width="8" height="8"/>
    <rect x="268" y="104" width="8" height="8"/>

    <rect x="172" y="112" width="8" height="8"/>
    <rect x="180" y="112" width="8" height="8"/>
    <rect x="188" y="112" width="8" height="8"/>
    <rect x="196" y="112" width="8" height="8"/>
    <rect x="212" y="112" width="8" height="8"/>
    <rect x="220" y="112" width="8" height="8"/>
    <rect x="228" y="112" width="8" height="8"/>
    <rect x="236" y="112" width="8" height="8"/>
    <rect x="244" y="112" width="8" height="8"/>
    <rect x="252" y="112" width="8" height="8"/>
    <rect x="260" y="112" width="8" height="8"/>
    <rect x="268" y="112" width="8" height="8"/>
    <rect x="276" y="112" width="8" height="8"/>

    <rect x="180" y="120" width="8" height="8"/>
    <rect x="188" y="120" width="8" height="8"/>
    <rect x="196" y="120" width="8" height="8"/>
    <rect x="212" y="120" width="8" height="8"/>
    <rect x="220" y="120" width="8" height="8"/>
    <rect x="228" y="120" width="8" height="8"/>
    <rect x="236" y="120" width="8" height="8"/>
    <rect x="244" y="120" width="8" height="8"/>
    <rect x="252" y="120" width="8" height="8"/>
    <rect x="260" y="120" width="8" height="8"/>
    <rect x="268" y="120" width="8" height="8"/>
    <rect x="276" y="120" width="8" height="8"/>
    <rect x="284" y="120" width="8" height="8"/>

    <rect x="188" y="128" width="8" height="8"/>
    <rect x="196" y="128" width="8" height="8"/>
    <rect x="204" y="128" width="8" height="8"/>
    <rect x="212" y="128" width="8" height="8"/>
    <rect x="220" y="128" width="8" height="8"/>
    <rect x="228" y="128" width="8" height="8"/>
    <rect x="236" y="128" width="8" height="8"/>
    <rect x="244" y="128" width="8" height="8"/>
    <rect x="252" y="128" width="8" height="8"/>
    <rect x="260" y="128" width="8" height="8"/>
    <rect x="268" y="128" width="8" height="8"/>
    <rect x="276" y="128" width="8" height="8"/>
    <rect x="284" y="128" width="8" height="8"/>

    <!-- Tail -->
    <rect x="196" y="136" width="8" height="8"/>
    <rect x="204" y="136" width="8" height="8"/>
    <rect x="212" y="136" width="8" height="8"/>
    <rect x="220" y="136" width="8" height="8"/>
    <rect x="228" y="136" width="8" height="8"/>
    <rect x="236" y="136" width="8" height="8"/>
    <rect x="244" y="136" width="8" height="8"/>
    <rect x="252" y="136" width="8" height="8"/>
    <rect x="260" y="136" width="8" height="8"/>
    <rect x="268" y="136" width="8" height="8"/>
    <rect x="276" y="136" width="8" height="8"/>
    <rect x="284" y="136" width="8" height="8"/>
    <rect x="292" y="136" width="8" height="8"/>
    <rect x="300" y="136" width="8" height="8"/>

    <rect x="220" y="144" width="8" height="8"/>
    <rect x="228" y="144" width="8" height="8"/>
    <rect x="236" y="144" width="8" height="8"/>
    <rect x="244" y="144" width="8" height="8"/>
    <rect x="252" y="144" width="8" height="8"/>
    <rect x="260" y="144" width="8" height="8"/>
    <rect x="276" y="144" width="8" height="8"/>
    <rect x="292" y="144" width="8" height="8"/>
    <rect x="308" y="144" width="8" height="8"/>

    <!-- Legs -->
    <rect x="212" y="152" width="8" height="8"/>
    <rect x="236" y="152" width="8" height="8"/>

    <rect x="212" y="160" width="8" height="8"/>
    <rect x="236" y="160" width="8" height="8"/>

    <!-- Branch -->
    <rect x="92" y="168" width="8" height="8"/>
    <rect x="100" y="168" width="8" height="8"/>
    <rect x="108" y="168" width="8" height="8"/>
    <rect x="116" y="168" width="8" height="8"/>
    <rect x="124" y="168" width="8" height="8"/>
    <rect x="132" y="168" width="8" height="8"/>
    <rect x="140" y="168" width="8" height="8"/>
    <rect x="148" y="168" width="8" height="8"/>
    <rect x="156" y="168" width="8" height="8"/>
    <rect x="164" y="168" width="8" height="8"/>
    <rect x="172" y="168" width="8" height="8"/>
    <rect x="180" y="168" width="8" height="8"/>
    <rect x="188" y="168" width="8" height="8"/>
    <rect x="196" y="168" width="8" height="8"/>
    <rect x="204" y="168" width="8" height="8"/>
    <rect x="212" y="168" width="8" height="8"/>
    <rect x="220" y="168" width="8" height="8"/>
    <rect x="228" y="168" width="8" height="8"/>
    <rect x="236" y="168" width="8" height="8"/>
    <rect x="244" y="168" width="8" height="8"/>
    <rect x="252" y="168" width="8" height="8"/>
    <rect x="260" y="168" width="8" height="8"/>
    <rect x="268" y="168" width="8" height="8"/>
    <rect x="276" y="168" width="8" height="8"/>

    <rect x="100" y="176" width="8" height="8"/>
    <rect x="108" y="176" width="8" height="8"/>
    <rect x="116" y="176" width="8" height="8"/>
    <rect x="124" y="176" width="8" height="8"/>
    <rect x="132" y="176" width="8" height="8"/>
    <rect x="140" y="176" width="8" height="8"/>
    <rect x="148" y="176" width="8" height="8"/>
    <rect x="156" y="176" width="8" height="8"/>
    <rect x="164" y="176" width="8" height="8"/>
    <rect x="172" y="176" width="8" height="8"/>
    <rect x="180" y="176" width="8" height="8"/>
    <rect x="188" y="176" width="8" height="8"/>
    <rect x="196" y="176" width="8" height="8"/>
    <rect x="204" y="176" width="8" height="8"/>
    <rect x="212" y="176" width="8" height="8"/>
    <rect x="220" y="176" width="8" height="8"/>
    <rect x="228" y="176" width="8" height="8"/>
    <rect x="236" y="176" width="8" height="8"/>
    <rect x="244" y="176" width="8" height="8"/>
    <rect x="252" y="176" width="8" height="8"/>
    <rect x="260" y="176" width="8" height="8"/>
    <rect x="268" y="176" width="8" height="8"/>
  </g>
</svg>
